<?xml version="1.0" standalone="no"?>
        <!DOCTYPE svg PUBLIC "-//W3C//DTD SVG 1.1//EN" 
        "http://www.w3.org/Graphics/SVG/1.1/DTD/svg11.dtd"> <svg xmlns="http://www.w3.org/2000/svg" xmlns:xlink="http://www.w3.org/1999/xlink" width="25" zoomAndPan="magnify" viewBox="0 0 30 30.000001" height="25" preserveAspectRatio="xMidYMid meet" version="1.0" id="IconChangeColor"><defs><clipPath id="id1"><path d="M 3.386719 11 L 27.339844 11 L 27.339844 19 L 3.386719 19 Z M 3.386719 11 " clip-rule="nonzero" id="mainIconPathAttribute"></path></clipPath><clipPath id="id2"><path d="M 3.386719 6.132812 L 27.339844 6.132812 L 27.339844 12 L 3.386719 12 Z M 3.386719 6.132812 " clip-rule="nonzero" id="mainIconPathAttribute"></path></clipPath><clipPath id="id3"><path d="M 3.386719 18 L 27.339844 18 L 27.339844 23.554688 L 3.386719 23.554688 Z M 3.386719 18 " clip-rule="nonzero" id="mainIconPathAttribute"></path></clipPath></defs><g clip-path="url(#id1)"><path fill="rgb(87.838745%, 0%, 20.388794%)" d="M 3.398438 11.492188 L 27.328125 11.492188 L 27.328125 18.191406 L 3.398438 18.191406 Z M 3.398438 11.492188 " fill-opacity="1" fill-rule="nonzero" id="mainIconPathAttribute"></path></g><g clip-path="url(#id2)"><path fill="rgb(0%, 59.609985%, 76.469421%)" d="M 24.667969 6.132812 L 6.058594 6.132812 C 4.589844 6.132812 3.398438 7.332031 3.398438 8.8125 L 3.398438 11.492188 L 27.328125 11.492188 L 27.328125 8.8125 C 27.328125 7.332031 26.136719 6.132812 24.667969 6.132812 Z M 24.667969 6.132812 " fill-opacity="1" fill-rule="nonzero" id="mainIconPathAttribute"></path></g><path fill="rgb(100%, 100%, 100%)" d="M 15.257812 17.078125 C 14.035156 17.078125 13.042969 16.078125 13.042969 14.84375 C 13.042969 13.609375 14.035156 12.609375 15.257812 12.609375 C 15.910156 12.609375 16.5 12.894531 16.90625 13.347656 C 16.425781 12.632812 15.617188 12.164062 14.699219 12.164062 C 13.230469 12.164062 12.039062 13.363281 12.039062 14.84375 C 12.039062 16.324219 13.230469 17.523438 14.699219 17.523438 C 15.617188 17.523438 16.425781 17.054688 16.90625 16.339844 C 16.5 16.792969 15.914062 17.078125 15.257812 17.078125 Z M 15.257812 17.078125 " fill-opacity="1" fill-rule="nonzero" id="mainIconPathAttribute"></path><path fill="rgb(100%, 100%, 100%)" d="M 19.128906 14.84375 L 18.335938 14.558594 L 18.695312 13.789062 L 17.933594 14.15625 L 17.652344 13.355469 L 17.371094 14.15625 L 17.367188 14.15625 L 16.605469 13.792969 L 16.96875 14.558594 L 16.175781 14.84375 L 16.96875 15.128906 L 16.609375 15.898438 L 17.367188 15.53125 L 17.371094 15.53125 L 17.652344 16.332031 L 17.933594 15.53125 L 18.699219 15.894531 L 18.335938 15.128906 Z M 19.128906 14.84375 " fill-opacity="1" fill-rule="nonzero" id="mainIconPathAttribute"></path><g clip-path="url(#id3)"><path fill="rgb(0%, 68.238831%, 39.608765%)" d="M 6.058594 23.554688 L 24.667969 23.554688 C 26.136719 23.554688 27.328125 22.351562 27.328125 20.875 L 27.328125 18.191406 L 3.398438 18.191406 L 3.398438 20.875 C 3.398438 22.351562 4.589844 23.554688 6.058594 23.554688 Z M 6.058594 23.554688 " fill-opacity="1" fill-rule="nonzero" id="mainIconPathAttribute"></path></g></svg> 